<svg xmlns="http://www.w3.org/2000/svg" viewBox="0 0 153.06 146.63"><defs><style>.cls-1{fill:#fff;}</style></defs><title>Paz Arando</title><path class="cls-1" d="M153.06 51.55c-.31-28.21-25.45-51-64-51.55-34 .38-56.35 19-61.56 39.22-14.8 5.78-27.79 23.1-27.5 49.78.38 34.23 19.55 55.7 43 55.44 26.29-.29 35.77-35.49 39.93-52.74 8.9-35.9 21.27-52.64 30.44-52.4 1.19 0 4.39-.06 4.36.91s-10.38 27.7-13.23 57.09c-.69 0-1.37.07-2 .08-10.92.12-9.65-2.89-11.33-2.87s0 4.53 11.13 4.4a20.16 20.16 0 0 0 2.06-.07c-.25 2.91-.44 5.83-.52 8.76-1 33.14 8.35 39.14 15.29 39.06 0 0 1.7 0 1.7-.7 0-1.25-.93-1.5-1.85-1.49-6.16.07-8.1-11.16-8.3-29.66.17-6 .46-11.54.83-16.77 25.34-4.46 41.78-25.68 41.55-46.49zm-33.21-11.38c0-1.36-4.19-1.79-6.18-1.85-13-.38-25.78 17.43-34.83 45.53-6.77 20.31-17.55 58.13-37 58.35-22.21-.64-38.91-25.47-39.21-53.07-.28-25.13 11.37-41.25 24.37-47.5a35.71 35.71 0 0 0-.64 7c.27 23.49 15.49 30.74 22.3 30.67 6.49-.07 16.11-5.12 15.79-18.74.32-11.68-8.69-23.68-26.37-23.44a29.58 29.58 0 0 0-8.2 1.29c5.56-15.53 24.47-35.94 60.12-36.34 30.48.46 54.39 22.75 54.7 51 .27 23.92-16 39-33.07 43.13 2.48-32.54 8.06-50.4 8.22-56.03zm-90.69.5a27.8 27.8 0 0 1 9.79-2c17.44-.19 22 14 22.06 21.92s-4.01 17.24-12.13 17.33-20.57-11.75-20.77-30.24a25.17 25.17 0 0 1 1.05-7.01z"/></svg>
